<svg xmlns="http://www.w3.org/2000/svg" viewBox="0 0 37.26 35.16"><defs><style>.cls-1{fill:#fff;}</style></defs><title>Asset 21</title><g id="Layer_2" data-name="Layer 2"><g id="Layer_1-2" data-name="Layer 1"><path class="cls-1" d="M15.62,8.58H0A8.58,8.58,0,0,1,8.58,0h7Z"/><rect class="cls-1" y="13.29" width="15.62" height="8.58"/><path class="cls-1" d="M7,35.16H0V26.58H15.62A8.58,8.58,0,0,1,7,35.16Z"/><path class="cls-1" d="M26.32,21.87h-6.1V13.29h6.1a2.31,2.31,0,0,0,1.87-.93,2.28,2.28,0,0,0,.39-2.06,2.36,2.36,0,0,0-2.26-1.72h-6.1V0h6.1A10.94,10.94,0,0,1,35,17.54,10.86,10.86,0,0,1,26.32,21.87Z"/></g></g></svg>