<svg xmlns="http://www.w3.org/2000/svg" viewBox="0 0 563.76 563.74"><title>Asset 1</title><g id="Layer_2" data-name="Layer 2"><g id="Layer_1-2" data-name="Layer 1"><path d="M281.81,0c156-.42,283.81,127.49,281.93,285.42C561.91,439.76,434.57,567,275.63,563.68,123.24,560.48-.14,435.79,0,282,.14,125.77,125.85,0,281.81,0ZM452.19,203.21c-2-1.25-3.51-2.27-5.08-3.16a166.44,166.44,0,0,0-55-18.92c-24.14-4-48.1-3.79-71.44,4.72-31,11.31-46.91,36.81-42.92,69.47,2.55,20.82,15.58,34,34,41.56C325,302.28,339,305.55,352.63,310c7.89,2.57,15.81,5.17,23.41,8.45,4.49,1.94,6.41,6.27,5.51,11.27-.84,4.7-4.24,7.2-8.62,7.88a49,49,0,0,1-12.38.58c-15.62-1.57-30.19-6.91-44-14-9.55-4.92-18.51-11-28.22-16.8l-24.51,49.86c2.26,1.7,4.17,3.28,6.22,4.65,25.09,16.76,53,25.63,82.83,28,21.29,1.67,42.36,0,62-9.46,24-11.53,36.13-30.77,35.85-57.41s-14.33-44.11-38.31-53.65c-13.42-5.33-27.49-9-41.25-13.49-5.07-1.65-10.12-3.33-15.11-5.18a22.3,22.3,0,0,1-5.68-3.08c-3.61-2.75-5.36-6.45-3.94-11,1.35-4.31,5-5.53,9.05-5.72,15.07-.73,28.89,4.28,42.51,9.73,10,4,19.67,8.78,30,13.46C436,237.31,444,220.51,452.19,203.21ZM55.54,184.14c.55,2,.83,3.41,1.34,4.76q36.77,96.9,73.49,193.81c1.24,3.28,2.94,4.17,6.23,4.15,19.83-.13,39.66-.21,59.49.05,4.32,0,6-1.57,7.46-5.35Q240.14,285.4,277,189.31c.6-1.58,1-3.25,1.6-5.44h-5.81c-19,0-38,.15-57-.11-4.5-.06-6.25,1.45-7.55,5.68-11,36-22.34,71.85-33.58,107.76-1.76,5.62-3.61,11.22-5.84,18.13-1-2.91-1.57-4.41-2.05-5.95-12.62-40-25.3-80-37.75-120.06-1.32-4.24-3.2-5.62-7.66-5.56-20,.26-40,.1-60,.12C59.56,183.88,57.8,184,55.54,184.14Zm406,174.61c-.06,17.93,11.78,30.1,29.41,30.23,17.78.14,30-11.88,30-29.57,0-18.22-11.86-30.24-29.88-30.14C473.47,329.36,461.61,341.19,461.55,358.75Z"/></g></g></svg>