<svg xmlns="http://www.w3.org/2000/svg" viewBox="0 0 255.83 378.35"><title>Asset 1</title><g id="Layer_2" data-name="Layer 2"><g id="Layer_1-2" data-name="Layer 1"><path d="M27.05,377.8c4.31-5.27,8.61-10.55,13-15.8q18.75-22.68,37.55-45.34Q93.24,297.73,109,278.83c3.82-4.61,7.66-9.2,11.37-13.9,1.24-1.57,2.35-1.64,4.06-.86a87.62,87.62,0,0,0,55.34,6.46c12.25-2.54,22.81-8.3,30-19,7-10.46,8.81-26.43,2.16-36.66-4.34-6.66-10.7-11-17.81-14-7.79-3.32-15.84-6-23.76-9a19.25,19.25,0,0,1-3.57-1.72c-2-1.28-3.58-2.95-2.85-5.56a5.07,5.07,0,0,1,4.85-3.71,53.58,53.58,0,0,1,11.4.49c9.17,1.65,17.27,5.91,24.74,11.35,1.69,1.23,2.6,1,3.86-.49q9.44-11.46,19.06-22.78c1.34-1.57,1.33-2.48-.38-3.79a76,76,0,0,0-31.15-13.91,89.77,89.77,0,0,0-32.27-1,8.21,8.21,0,0,0-6.51,4.18Q143.16,178.59,128.41,202c-1.43,2.28-1.17,3.77.37,5.69,4.51,5.64,10.45,9.3,17,11.91,7.47,3,15.17,5.41,22.76,8.12a25.61,25.61,0,0,1,4.08,1.79,5.36,5.36,0,0,1,2.77,5.24,5.24,5.24,0,0,1-3.71,4.87,17.77,17.77,0,0,1-5.83,1c-13.22-.36-25-5-35.8-12.41-4-2.76-7.69-6.06-11.76-9.3-.45.64-1,1.32-1.46,2.07q-24,39-48,78c-1.14,1.85-2.09,2-4,.95Q27.12,278.2,10,238.21A123.77,123.77,0,0,1,.35,180c2.16-29.47,13.14-55.29,33-77.13A124.8,124.8,0,0,1,90.45,66.73,124,124,0,0,1,148,62.8c4.66.79,9.27,1.91,13.89,3a4.11,4.11,0,0,0,4.12-.92q20-18.11,40-36.14,15.4-13.84,30.86-27.64a3.66,3.66,0,0,1,2.36-1L98.42,176.91l-.72-.18c-.21-1.25-.52-2.49-.61-3.74-1.45-19.42-2.91-38.83-4.26-58.25-.16-2.23-.87-3-3.15-3-12.58.09-25.17.07-37.75,0-2.15,0-2.64.63-2.34,2.79,2.56,18.7,5,37.42,7.48,56.12,1.81,13.43,3.74,26.84,5.59,40.27.78,5.68,1.53,11.37,2.15,17.07.2,1.85.86,2.62,2.78,2.61,11.09-.05,22.17-.06,33.25,0,2,0,2.74-1.24,3.57-2.59q11.22-18.13,22.42-36.29,20.36-33,40.68-66,13-21.14,26.07-42.24c1.93-3.13,1.93-3.15,5-1.08A127.62,127.62,0,0,1,253.06,163a123.9,123.9,0,0,1-3.41,64.78c-10.49,32-30.67,56.39-60.08,72.93A123,123,0,0,1,148,314.89a132.93,132.93,0,0,1-36.35.62c-2.15-.26-4.3-.53-6.41-1a4.56,4.56,0,0,0-4.32,1.17Q70.24,342,39.47,368.28c-3.95,3.38-8,6.71-11.94,10.07Z"/></g></g></svg>