<svg xmlns="http://www.w3.org/2000/svg" viewBox="0 0 16.51 19.72"><defs><style>.cls-1{fill:#ffffff;}.cls-2{fill:#fff;}</style></defs><title>Asset 25</title><g id="Layer_2" data-name="Layer 2"><g id="Layer_1-2" data-name="Layer 1"><path class="cls-1" d="M5.9,17.4h4.67a2,2,0,0,1-.9,1.83,2.26,2.26,0,0,1-2.56.17A2.22,2.22,0,0,1,5.9,17.4Z" transform="translate(0 0)"/><path class="cls-2" d="M8.25,0V1.5h0a2.73,2.73,0,0,0,1.77,2.26,4.53,4.53,0,0,1,2.88,4.28c0,.78,0,1.56,0,2.39v.37a6,6,0,0,0,1.63,4.25H1.94a6.27,6.27,0,0,0,1.63-4.65,18.71,18.71,0,0,1,.08-3A4.36,4.36,0,0,1,6.48,3.76,2.67,2.67,0,0,0,8.21,1.51h0V0m0,0h0A1.49,1.49,0,0,0,6.72,1.31a1.17,1.17,0,0,1-.85,1.07A5.88,5.88,0,0,0,2.16,7.23a19.37,19.37,0,0,0-.08,3.23,4.8,4.8,0,0,1-1.55,3.9,1.21,1.21,0,0,0-.41,1.5,1.28,1.28,0,0,0,1.32.7H15.2a1.21,1.21,0,0,0,1.2-.71,1.17,1.17,0,0,0-.3-1.36,3.26,3.26,0,0,0-.31-.33,4.41,4.41,0,0,1-1.35-3.32c0-1,0-1.91,0-2.86a6,6,0,0,0-3.75-5.57,1.25,1.25,0,0,1-.9-1.11A1.49,1.49,0,0,0,8.25,0Z" transform="translate(0 0)"/><path class="cls-2" d="M10.57,17.4H5.9a2.22,2.22,0,0,0,1.21,2,2.46,2.46,0,0,0,1.17.32,2.38,2.38,0,0,0,1.39-.49,2,2,0,0,0,.9-1.83Z" transform="translate(0 0)"/></g></g></svg>