<svg xmlns="http://www.w3.org/2000/svg" viewBox="0 0 16.51 19.72"><defs><style>.cls-1{fill:#ff8b00;}</style></defs><title>Asset 14</title><g id="Layer_2" data-name="Layer 2"><g id="Layer_1-2" data-name="Layer 1"><path class="cls-1" d="M8.26,16.56H1.46a1.27,1.27,0,0,1-1.34-.7,1.21,1.21,0,0,1,.41-1.5,4.8,4.8,0,0,0,1.55-3.9,19.37,19.37,0,0,1,.08-3.23A5.88,5.88,0,0,1,5.87,2.38a1.17,1.17,0,0,0,.85-1.07A1.49,1.49,0,0,1,8.24,0,1.5,1.5,0,0,1,9.78,1.3a1.25,1.25,0,0,0,.9,1.11A6,6,0,0,1,14.43,8c.05.95,0,1.91,0,2.86a4.41,4.41,0,0,0,1.35,3.32,3.26,3.26,0,0,1,.31.33,1.17,1.17,0,0,1,.3,1.36,1.23,1.23,0,0,1-1.21.71Z"/><path class="cls-1" d="M5.9,17.4h4.67a2,2,0,0,1-.9,1.83,2.26,2.26,0,0,1-2.56.17A2.22,2.22,0,0,1,5.9,17.4Z"/></g></g></svg>