<svg xmlns="http://www.w3.org/2000/svg" viewBox="0 0 16.58 20.03"><defs><style>.cls-1{fill:none;stroke:#fff;stroke-miterlimit:10;stroke-width:2px;}</style></defs><title>Asset 36</title><g id="Layer_2" data-name="Layer 2"><g id="Layer_1-2" data-name="Layer 1"><path class="cls-1" d="M15.47,15.36H1.11L2,6.67A6.31,6.31,0,0,1,8.29,1h0a6.31,6.31,0,0,1,6.28,5.67Z"/><path class="cls-1" d="M10.84,16.49A2.55,2.55,0,0,1,8.29,19h0a2.55,2.55,0,0,1-2.55-2.54"/><path class="cls-1" d="M15.47,15.36H1.11L2,6.67A6.31,6.31,0,0,1,8.29,1h0a6.31,6.31,0,0,1,6.28,5.67Z"/><path class="cls-1" d="M10.84,16.49A2.55,2.55,0,0,1,8.29,19h0a2.55,2.55,0,0,1-2.55-2.54"/></g></g></svg>