<svg xmlns="http://www.w3.org/2000/svg" viewBox="0 0 20.04 20.04"><defs><style>.cls-1{fill:none;}.cls-2{fill:#ff8b00;}</style></defs><title>Asset 19</title><g id="Layer_2" data-name="Layer 2"><g id="Layer_1-2" data-name="Layer 1"><rect class="cls-1" width="20.04" height="20.04"/><path class="cls-2" d="M19.86,7A5.19,5.19,0,0,0,18.8,5.27,5.81,5.81,0,0,0,17,3.88a3.33,3.33,0,0,0-2.15-.26,4.28,4.28,0,0,0-1.65.75,4.55,4.55,0,0,0-1.3,1.43,7.46,7.46,0,0,0-.65,1.47,8.49,8.49,0,0,0-.33,1.81c0,.44-.07.88-.14,1.31s-.22,1.1-.34,1.64a1.09,1.09,0,0,1-.4.73s0,0,0,0l-.55.6-.85.84c-.06.06-.13.12-.18.18a4.53,4.53,0,0,1-.79.67,4.42,4.42,0,0,0-.47.39s0,.07,0,.12.16.21.25.31a3.65,3.65,0,0,0,.62.56s.08.06.12,0l.33-.39c.15-.2.28-.41.45-.6s.54-.55.81-.82l.72-.69.4-.35a.66.66,0,0,0,.14-.15.36.36,0,0,1,.23-.17,1.87,1.87,0,0,1,.22-.07c.52-.12,1-.24,1.54-.34a10.54,10.54,0,0,1,1.47-.18,8.1,8.1,0,0,0,1-.11A7.31,7.31,0,0,0,17.29,12a4.63,4.63,0,0,0,1.44-1l.08-.08a4.41,4.41,0,0,0,1.07-1.8A3.31,3.31,0,0,0,19.86,7Zm-7,5a.41.41,0,0,1-.18.05,4.09,4.09,0,0,0-.91.25,1,1,0,0,1-.23.08c-.25,0-.38-.08-.33-.33s.1-.26.13-.39.13-.5.19-.75l0-.13c.09-.22.26-.26.45-.07a1.16,1.16,0,0,1,.09.14,2.19,2.19,0,0,0,.73.69l.12.11A.21.21,0,0,1,12.86,12Z"/><path class="cls-2" d="M12.92,15.48c-.13-.11-.25-.23-.39-.33s-.41-.29-.6-.46-.55-.54-.82-.81l-.69-.71c-.12-.13-.23-.27-.35-.41a.62.62,0,0,0-.14-.14.35.35,0,0,1-.18-.22c0-.08-.05-.15-.07-.23-.12-.51-.24-1-.34-1.54a10.35,10.35,0,0,1-.18-1.47,8.33,8.33,0,0,0-.11-1A7.31,7.31,0,0,0,8.44,6.3a4.87,4.87,0,0,0-1-1.44l-.08-.07a4.3,4.3,0,0,0-1.8-1.07,3.31,3.31,0,0,0-2.11,0A5.32,5.32,0,0,0,1.72,4.8,5.7,5.7,0,0,0,.33,6.64,3.32,3.32,0,0,0,0,8.24a3.47,3.47,0,0,0,.08.55,4.18,4.18,0,0,0,.74,1.65,4.68,4.68,0,0,0,1.43,1.3,7.11,7.11,0,0,0,1.47.64,7.93,7.93,0,0,0,1.81.34,11.4,11.4,0,0,1,1.31.14c.55.09,1.1.22,1.64.34a1,1,0,0,1,.73.39l0,0,.6.55.84.84c.07.06.12.14.19.19a5.09,5.09,0,0,1,.67.79,5.58,5.58,0,0,0,.38.47s.07,0,.12,0,.21-.16.31-.26a3.25,3.25,0,0,0,.56-.61.09.09,0,0,0,0-.06S12.94,15.5,12.92,15.48ZM8.5,12.39c-.13,0-.26-.1-.39-.14l-.75-.19a.61.61,0,0,1-.13,0A.27.27,0,0,1,7,11.85a.33.33,0,0,1,.12-.26l.14-.1A2.16,2.16,0,0,0,8,10.77a.63.63,0,0,1,.11-.12.21.21,0,0,1,.35.09.55.55,0,0,1,.06.18,3.71,3.71,0,0,0,.24.91.63.63,0,0,1,.08.23.3.3,0,0,1,0,.16C8.81,12.36,8.69,12.43,8.5,12.39Z"/></g></g></svg>