<svg xmlns="http://www.w3.org/2000/svg" viewBox="0 0 20.78 20.78"><defs><style>.cls-1{fill:none;}.cls-2{fill:#fff;}</style></defs><title>Asset 27</title><g id="Layer_2" data-name="Layer 2"><g id="Layer_1-2" data-name="Layer 1"><rect class="cls-1" width="20.78" height="20.78"/><path class="cls-2" d="M8.45,16.22a.39.39,0,0,1-.26-.1l-.58-.54a.33.33,0,0,1-.12-.28A.32.32,0,0,1,7.65,15c.09-.08.46-.34.55-.41a10.57,10.57,0,0,0,1.18-1.09c-.52-.1-1-.21-1.41-.28l-.9-.12-.65-.08c-.45-.07-.84-.12-1.23-.22a5.72,5.72,0,0,1-1.34-.49,4.36,4.36,0,0,1-.8-.51,4.69,4.69,0,0,1-.9-.87,3.86,3.86,0,0,1-.8-1.72,3.19,3.19,0,0,1,.16-1.78A4.84,4.84,0,0,1,3,5.38a3.61,3.61,0,0,1,2-.8,2.68,2.68,0,0,1,.4,0A3.73,3.73,0,0,1,7,4.92,4.65,4.65,0,0,1,8.47,6a4.51,4.51,0,0,1,.61.84c.18.34.34.69.49,1A8.11,8.11,0,0,1,10,9.43c0,.21.08.42.11.63l.31,1.72c.07-.34.12-.68.16-1l.11-.76c0-.27.08-.55.13-.83s.18-.82.3-1.22a5.32,5.32,0,0,1,.71-1.48,4.26,4.26,0,0,1,.63-.77,4,4,0,0,1,1-.73A3.69,3.69,0,0,1,15,4.57h.26a4.15,4.15,0,0,1,1.29.2,4.27,4.27,0,0,1,1.85,1.33,5.52,5.52,0,0,1,.64,1,3.78,3.78,0,0,1,.44,1.27,2.78,2.78,0,0,1-.07,1.15,4.56,4.56,0,0,1-.84,1.6,5.07,5.07,0,0,1-1.47,1.21,5.44,5.44,0,0,1-1.27.51c-.3.07-.6.15-.9.2l-1,.13a12.1,12.1,0,0,0-1.65.26l-.67.18-.16,0A12.65,12.65,0,0,0,13,14.9a1.18,1.18,0,0,1,.22.17.32.32,0,0,1,0,.49,3.51,3.51,0,0,1-.33.34l-.2.16a.5.5,0,0,1-.33.16.38.38,0,0,1-.28-.14,1.57,1.57,0,0,1-.21-.24l-.12-.15-.92-1.06c-.15-.17-.29-.34-.44-.5l-.24.3-.39.44c-.19.21-.37.43-.55.65l-.29.36-.18.21A.37.37,0,0,1,8.45,16.22ZM5.39,5.67a2.65,2.65,0,0,0-1,.2,2.91,2.91,0,0,0-1.05.75A3.71,3.71,0,0,0,2.48,8a2.19,2.19,0,0,0-.1.81,2.83,2.83,0,0,0,.56,1.36,3.73,3.73,0,0,0,.65.68,3.45,3.45,0,0,0,1,.63,6.2,6.2,0,0,0,.89.29c.36.08.72.13,1.09.19l.17,0,.56.08.54.07.55.1.22,0a4.27,4.27,0,0,1,.86.23l.18.08,0,0a1.61,1.61,0,0,1-.15-.36c-.12-.41-.23-.83-.32-1.24-.05-.22-.09-.44-.13-.67S9,9.86,8.9,9.64s-.18-.71-.29-1.05a6,6,0,0,0-.45-1.07,4.16,4.16,0,0,0-.9-1.14,3.15,3.15,0,0,0-.78-.48,2.59,2.59,0,0,0-.93-.23Zm9.84,0a2.69,2.69,0,0,0-1.55.46,3.55,3.55,0,0,0-1,1.09A5.93,5.93,0,0,0,12,9c-.1.44-.18.89-.26,1.34l-.07.47a11.45,11.45,0,0,1-.22,1.14c-.05.19-.12.39-.19.58a.5.5,0,0,0-.05.13,3.22,3.22,0,0,1,.74-.25l.72-.13,1.3-.19a11.07,11.07,0,0,0,1.44-.24A4.42,4.42,0,0,0,17.09,11a3.42,3.42,0,0,0,1-1.12,2.59,2.59,0,0,0,.3-.84,2.13,2.13,0,0,0-.18-1.25A3.53,3.53,0,0,0,17.72,7a3.37,3.37,0,0,0-1.06-1,2.78,2.78,0,0,0-1.22-.36Z"/><path class="cls-2" d="M5.4,4.66A3.64,3.64,0,0,1,7,5,4.51,4.51,0,0,1,8.4,6.08,4.81,4.81,0,0,1,9,6.91a9.64,9.64,0,0,1,.48,1A8.94,8.94,0,0,1,9.9,9.45c.06.35.11.7.18,1.05.09.55.19,1.1.29,1.65l0,0h0c0-.07,0-.14.05-.2.12-.54.18-1.09.26-1.63.06-.39.1-.78.18-1.17s.18-.81.3-1.21a5,5,0,0,1,.69-1.46,6.33,6.33,0,0,1,.62-.75,4.19,4.19,0,0,1,1-.72A3.61,3.61,0,0,1,15,4.67h.25a3.86,3.86,0,0,1,1.26.2,4.17,4.17,0,0,1,1.81,1.29,5.27,5.27,0,0,1,.62.94,3.71,3.71,0,0,1,.43,1.25,2.56,2.56,0,0,1-.07,1.1A4.18,4.18,0,0,1,18.47,11,4.85,4.85,0,0,1,17,12.19a5.12,5.12,0,0,1-1.24.5c-.3.08-.6.15-.9.2s-.72.1-1.08.14a14,14,0,0,0-1.58.25l-.84.23c-.09,0-.09.05,0,.12A9.11,9.11,0,0,0,12.93,15a1.16,1.16,0,0,1,.21.16.23.23,0,0,1,0,.36c-.1.11-.22.22-.33.32l-.24.21a.35.35,0,0,1-.22.09.29.29,0,0,1-.21-.11c-.12-.12-.22-.26-.33-.38-.3-.36-.61-.71-.91-1.06l-.45-.51s0-.05-.06-.05,0,0-.06.05l-.66.74c-.26.3-.51.61-.76.92-.09.1-.16.21-.25.3a.29.29,0,0,1-.41,0l-.58-.54a.24.24,0,0,1,0-.4l.55-.4a9.52,9.52,0,0,0,1.19-1.1c.05,0,.05-.07,0-.09A8.78,8.78,0,0,0,8,13.16L6.43,13a12.23,12.23,0,0,1-1.21-.21,6.16,6.16,0,0,1-1.32-.49,4.38,4.38,0,0,1-.79-.5,4.48,4.48,0,0,1-.88-.86,3.68,3.68,0,0,1-.78-1.67A3.1,3.1,0,0,1,1.6,7.5a4.75,4.75,0,0,1,1.5-2A3.56,3.56,0,0,1,5,4.67H5.4M11,12.8l.15-.06a3.85,3.85,0,0,1,.81-.27l.71-.13,1.29-.19a11.85,11.85,0,0,0,1.45-.24,4.54,4.54,0,0,0,1.76-.83,3.65,3.65,0,0,0,1-1.15,3.12,3.12,0,0,0,.31-.87,2.19,2.19,0,0,0-.19-1.31,4.2,4.2,0,0,0-.45-.8,3.36,3.36,0,0,0-1.1-1,2.8,2.8,0,0,0-1.26-.38h-.22a2.78,2.78,0,0,0-1.6.48,3.54,3.54,0,0,0-1.06,1.12,5.9,5.9,0,0,0-.7,1.77c-.11.44-.19.89-.26,1.34s-.15,1.08-.29,1.6c-.06.19-.12.38-.19.57s-.11.22-.16.33v0m-1.18,0h0l0-.08a3.78,3.78,0,0,1-.22-.5c-.11-.41-.22-.82-.31-1.24S9.09,10.06,9,9.62s-.18-.71-.29-1.06a5.52,5.52,0,0,0-.47-1.09A4,4,0,0,0,7.32,6.3a3.13,3.13,0,0,0-.8-.49,2.88,2.88,0,0,0-1-.24H5.39a2.75,2.75,0,0,0-1.06.21,3,3,0,0,0-1.08.77A3.74,3.74,0,0,0,2.39,8a2.06,2.06,0,0,0-.11.85,3,3,0,0,0,.58,1.41,4,4,0,0,0,.66.7,3.74,3.74,0,0,0,1,.64,6.06,6.06,0,0,0,.91.3c.41.09.84.15,1.26.21s.74.09,1.1.15.51.09.77.13a4,4,0,0,1,.84.24l.36.14M5.4,4.46a2.82,2.82,0,0,0-.41,0A3.76,3.76,0,0,0,3,5.3,4.94,4.94,0,0,0,1.42,7.43a3.31,3.31,0,0,0-.17,1.84A4.16,4.16,0,0,0,2.07,11a5.14,5.14,0,0,0,.91.89,4.65,4.65,0,0,0,.83.52,6.2,6.2,0,0,0,1.36.5,9.89,9.89,0,0,0,1.19.21l.7.09.89.12a8.78,8.78,0,0,1,1.19.28,10.18,10.18,0,0,1-1,.91l-.27.19L7.58,15a.44.44,0,0,0-.19.33.43.43,0,0,0,.15.36c.19.19.39.37.59.55a.47.47,0,0,0,.32.12.5.5,0,0,0,.36-.16c.07-.07.12-.14.18-.21l.08-.1.22-.26.54-.66.4-.45.17-.19.36.41c.3.35.61.7.91,1.06l.12.14.21.25a.47.47,0,0,0,.7,0l.07-.05L13,16l.34-.34a.42.42,0,0,0,0-.63,1.08,1.08,0,0,0-.24-.18,8.83,8.83,0,0,1-1.38-1.17,6.32,6.32,0,0,1,.62-.18,12.7,12.7,0,0,1,1.55-.24l.1,0,1-.12c.32-.06.64-.14.92-.21a5.77,5.77,0,0,0,1.29-.51,5.12,5.12,0,0,0,1.49-1.24,4.28,4.28,0,0,0,.86-1.63,2.82,2.82,0,0,0,.08-1.19A3.93,3.93,0,0,0,19.11,7a5.75,5.75,0,0,0-.65-1,4.32,4.32,0,0,0-1.9-1.35,4.06,4.06,0,0,0-1.32-.21H15a3.73,3.73,0,0,0-1.56.41,4,4,0,0,0-1,.75,4.86,4.86,0,0,0-.64.78A5.25,5.25,0,0,0,11,7.92c-.12.4-.22.82-.31,1.23s-.09.56-.13.84l-.05.34-.06.42-.06.46c-.05-.25-.09-.5-.14-.75s0-.27-.07-.4-.07-.44-.11-.65a7.63,7.63,0,0,0-.43-1.54c-.16-.38-.32-.73-.49-1.06A5.05,5.05,0,0,0,8.55,6,4.68,4.68,0,0,0,7.07,4.83,3.81,3.81,0,0,0,5.4,4.46Zm5.95,8c.06-.16.11-.33.16-.5a11.64,11.64,0,0,0,.22-1.15c0-.15,0-.31.07-.46.07-.41.15-.88.26-1.34a5.93,5.93,0,0,1,.68-1.7,3.39,3.39,0,0,1,1-1.06,2.57,2.57,0,0,1,1.49-.45h.2a2.61,2.61,0,0,1,1.18.35,3.18,3.18,0,0,1,1,.94,4.07,4.07,0,0,1,.44.76A2,2,0,0,1,18.25,9a2.65,2.65,0,0,1-.29.81A3.34,3.34,0,0,1,17,10.92a4.44,4.44,0,0,1-1.68.8,14.23,14.23,0,0,1-1.44.23c-.41.05-.82.12-1.22.18h-.07l-.73.13a4.26,4.26,0,0,0-.54.16Zm-1.91,0a4.42,4.42,0,0,0-.81-.21l-.22-.05-.55-.09L7.33,12l-.57-.08-.17,0c-.36-.05-.73-.11-1.08-.19a5.93,5.93,0,0,1-.87-.28,3.64,3.64,0,0,1-1-.61A3.54,3.54,0,0,1,3,10.15a2.72,2.72,0,0,1-.54-1.31,2,2,0,0,1,.1-.77,3.49,3.49,0,0,1,.81-1.38,3,3,0,0,1,1-.73,2.63,2.63,0,0,1,1-.19h.16A2.64,2.64,0,0,1,6.44,6a3,3,0,0,1,.75.47,3.78,3.78,0,0,1,.88,1.11,6.15,6.15,0,0,1,.45,1c.11.34.2.7.28,1s.09.45.13.67.08.45.13.67c.09.4.2.81.32,1.25l.06.17Z"/><path class="cls-2" d="M11.49,12.58a.34.34,0,0,1-.27-.13.38.38,0,0,1-.06-.31c0-.07.05-.13.07-.2a1.07,1.07,0,0,0,.07-.19c0-.13.06-.26.1-.4l0-.22a.45.45,0,0,1,.27-.35.31.31,0,0,1,.13,0,.4.4,0,0,1,.27.11.78.78,0,0,1,.14.2,1.62,1.62,0,0,0,.5.52,1.56,1.56,0,0,1,.2.16.32.32,0,0,1,.1.31.31.31,0,0,1-.22.22,1.26,1.26,0,0,1-.28.05,4.24,4.24,0,0,0-.92.23Z"/><path class="cls-2" d="M11.85,10.85a.28.28,0,0,1,.2.09.76.76,0,0,1,.13.17,1.61,1.61,0,0,0,.52.55l.19.15a.2.2,0,0,1-.08.36,1.65,1.65,0,0,1-.32.06,4.48,4.48,0,0,0-.89.23l-.11,0a.24.24,0,0,1-.23-.31c0-.13.1-.26.13-.39s.11-.42.16-.63a.35.35,0,0,1,.2-.28l.1,0m0-.2-.17,0a.56.56,0,0,0-.33.42l0,.23c0,.13-.06.26-.1.4l-.06.18a1.72,1.72,0,0,0-.07.21.45.45,0,0,0,.07.39.43.43,0,0,0,.35.17h.07l.11,0a3.9,3.9,0,0,1,.85-.22,1.94,1.94,0,0,0,.35-.07.42.42,0,0,0,.29-.29.44.44,0,0,0-.13-.4l-.21-.17a1.44,1.44,0,0,1-.47-.49.76.76,0,0,0-.17-.22.47.47,0,0,0-.33-.14Z"/><path class="cls-2" d="M9.36,12.48A1.48,1.48,0,0,1,9,12.4a4.11,4.11,0,0,0-.88-.19.58.58,0,0,1-.21-.07A.3.3,0,0,1,7.77,12a.29.29,0,0,1,.08-.26,1.18,1.18,0,0,1,.21-.18,1.62,1.62,0,0,0,.54-.58.53.53,0,0,1,.18-.21A.42.42,0,0,1,9,10.66a.38.38,0,0,1,.36.3.67.67,0,0,1,.05.19,3.63,3.63,0,0,0,.25.83l0,.11c0,.25-.12.39-.3.39Z"/><path class="cls-2" d="M9,10.76a.29.29,0,0,1,.27.23,1.21,1.21,0,0,1,.05.18,3.51,3.51,0,0,0,.24.84.74.74,0,0,1,0,.14c0,.13-.08.23-.21.23h0A1.76,1.76,0,0,1,9,12.31a4.77,4.77,0,0,0-.91-.2L8,12.05a.18.18,0,0,1,0-.29l.2-.17A2,2,0,0,0,8.69,11a.42.42,0,0,1,.14-.18.34.34,0,0,1,.16,0m0-.2a.42.42,0,0,0-.26.08.6.6,0,0,0-.22.25,1.66,1.66,0,0,1-.5.54,1.33,1.33,0,0,0-.24.19.43.43,0,0,0-.1.35.36.36,0,0,0,.19.26.81.81,0,0,0,.25.08A3.91,3.91,0,0,1,9,12.5a1.59,1.59,0,0,0,.39.08h0a.42.42,0,0,0,.43-.42V12.1a.46.46,0,0,0,0-.16,3.91,3.91,0,0,1-.24-.8,1.6,1.6,0,0,0-.05-.21A.48.48,0,0,0,9,10.56Z"/></g></g></svg>