<svg xmlns="http://www.w3.org/2000/svg" viewBox="0 0 18.4 11.87"><defs><style>.cls-1{fill:#fff;}</style></defs><title>Asset 23</title><g id="Layer_2" data-name="Layer 2"><g id="Layer_1-2" data-name="Layer 1"><path class="cls-1" d="M7.26,11.77A.4.4,0,0,1,7,11.66c-.2-.17-.39-.35-.58-.54a.33.33,0,0,1-.12-.28.34.34,0,0,1,.16-.26L7,10.17A10.43,10.43,0,0,0,8.19,9.09c-.51-.1-1-.22-1.41-.28l-.9-.12L5.23,8.6A11.67,11.67,0,0,1,4,8.39,6.79,6.79,0,0,1,2.66,7.9a5,5,0,0,1-.8-.51A5,5,0,0,1,1,6.51a3.81,3.81,0,0,1-.8-1.72A3.19,3.19,0,0,1,.32,3,4.9,4.9,0,0,1,1.84.92a3.69,3.69,0,0,1,2-.8l.4,0A3.73,3.73,0,0,1,5.83.46a4.54,4.54,0,0,1,1.45,1.1,4.25,4.25,0,0,1,.61.85c.18.33.34.69.49,1A8.32,8.32,0,0,1,8.8,5c0,.21.08.42.11.63l.31,1.72c.07-.33.12-.68.16-1l.11-.75c0-.28.08-.56.13-.83s.18-.82.3-1.23A5.32,5.32,0,0,1,10.63,2a4.17,4.17,0,0,1,.63-.76,4,4,0,0,1,1-.74,3.86,3.86,0,0,1,1.52-.4h.26a3.88,3.88,0,0,1,1.29.21,4.16,4.16,0,0,1,1.85,1.32,5.93,5.93,0,0,1,.64,1,3.75,3.75,0,0,1,.44,1.28A2.8,2.8,0,0,1,18.2,5a4.51,4.51,0,0,1-.84,1.59,5.26,5.26,0,0,1-1.47,1.22,5.88,5.88,0,0,1-1.27.5c-.3.08-.6.15-.9.2s-.66.09-1,.13a15.82,15.82,0,0,0-1.67.26c-.23.05-.45.12-.68.19l-.15,0a12.65,12.65,0,0,0,1.57,1.29,1.84,1.84,0,0,1,.22.17.33.33,0,0,1,0,.5q-.15.17-.33.33l-.2.17a.53.53,0,0,1-.33.15.37.37,0,0,1-.28-.13,1.64,1.64,0,0,1-.21-.25l-.12-.15-.92-1.05L9.2,9.67,9,10l-.39.45L8,11.07l-.29.35-.18.21A.38.38,0,0,1,7.26,11.77ZM14,1.21a2.7,2.7,0,0,0-1.55.47,3.44,3.44,0,0,0-1,1.09,5.87,5.87,0,0,0-.7,1.73c-.1.45-.18.89-.26,1.34l-.07.48a11.26,11.26,0,0,1-.22,1.13A5.62,5.62,0,0,1,10,8a1.12,1.12,0,0,0,0,.13,3.78,3.78,0,0,1,.74-.25l.72-.13,1.3-.18a13.08,13.08,0,0,0,1.44-.24,4.56,4.56,0,0,0,1.72-.81,3.55,3.55,0,0,0,1-1.13,2.59,2.59,0,0,0,.3-.84A2.13,2.13,0,0,0,17,3.33a3.77,3.77,0,0,0-.45-.78,3.34,3.34,0,0,0-1.06-1,2.8,2.8,0,0,0-1.22-.37Zm-9.84,0a2.65,2.65,0,0,0-1,.2,3.17,3.17,0,0,0-1.05.75,3.79,3.79,0,0,0-.84,1.42,2.19,2.19,0,0,0-.1.81,2.79,2.79,0,0,0,.56,1.36,3.77,3.77,0,0,0,.65.69,3.54,3.54,0,0,0,1,.62,5.16,5.16,0,0,0,.89.29c.36.08.72.14,1.09.19l.17,0,.56.07.54.07.55.1.22,0a3.76,3.76,0,0,1,.86.24l.16.06v0a1.54,1.54,0,0,1-.15-.35c-.12-.42-.23-.83-.32-1.25,0-.22-.09-.44-.13-.66s-.08-.45-.13-.68-.18-.7-.29-1A6.36,6.36,0,0,0,7,3.06a4.32,4.32,0,0,0-.9-1.14,3.15,3.15,0,0,0-.78-.48,2.8,2.8,0,0,0-.93-.22Z"/><path class="cls-1" d="M4.21.2A3.64,3.64,0,0,1,5.79.55,4.54,4.54,0,0,1,7.21,1.63a4.38,4.38,0,0,1,.59.82,10.8,10.8,0,0,1,.48,1A8.58,8.58,0,0,1,8.71,5c.06.35.11.7.18,1,.09.55.19,1.1.29,1.65l0,0h0c0-.07,0-.13,0-.2.12-.54.18-1.08.26-1.63.06-.39.1-.78.18-1.16s.18-.82.3-1.22a5,5,0,0,1,.69-1.45,5,5,0,0,1,.62-.75,3.7,3.7,0,0,1,1-.72A3.78,3.78,0,0,1,13.8.21h.25a3.86,3.86,0,0,1,1.26.2,4.19,4.19,0,0,1,1.81,1.3,4.93,4.93,0,0,1,.62.94,3.66,3.66,0,0,1,.43,1.24A2.59,2.59,0,0,1,18.1,5a4.18,4.18,0,0,1-.82,1.56,5,5,0,0,1-1.44,1.19,5.52,5.52,0,0,1-1.24.49c-.3.08-.6.15-.9.2s-.72.1-1.08.14A14,14,0,0,0,11,8.82l-.84.24c-.09,0-.09,0,0,.11a9.17,9.17,0,0,0,1.56,1.36.8.8,0,0,1,.21.15A.23.23,0,0,1,12,11l-.33.33-.24.2a.35.35,0,0,1-.22.09.28.28,0,0,1-.21-.1c-.12-.12-.22-.26-.33-.39l-.91-1.06L9.27,9.6s0,0-.06,0,0,0-.06.06l-.66.73-.76.93c-.09.09-.16.2-.25.29a.27.27,0,0,1-.41,0c-.2-.18-.39-.35-.58-.54a.23.23,0,0,1,0-.39l.55-.41a9.52,9.52,0,0,0,1.19-1.1c.05-.05.05-.06,0-.08a7.88,7.88,0,0,0-1.45-.36c-.51-.08-1-.14-1.55-.21A12.23,12.23,0,0,1,4,8.29a6.71,6.71,0,0,1-1.32-.48,5,5,0,0,1-.79-.5A4.78,4.78,0,0,1,1,6.45,3.78,3.78,0,0,1,.26,4.78,3.13,3.13,0,0,1,.41,3a4.81,4.81,0,0,1,1.5-2A3.55,3.55,0,0,1,3.82.22l.39,0M9.79,8.35l.15-.06A3.38,3.38,0,0,1,10.75,8l.71-.13,1.29-.18a11.88,11.88,0,0,0,1.45-.25A4.4,4.4,0,0,0,16,6.62a3.54,3.54,0,0,0,1-1.15,3,3,0,0,0,.31-.87,2.2,2.2,0,0,0-.19-1.31,4.2,4.2,0,0,0-.45-.8,3.47,3.47,0,0,0-1.1-1,2.94,2.94,0,0,0-1.26-.38H14a2.72,2.72,0,0,0-1.6.49,3.44,3.44,0,0,0-1.06,1.12,6,6,0,0,0-.7,1.76c-.11.45-.19.9-.26,1.35s-.15,1.07-.29,1.59c-.06.2-.12.39-.19.58l-.16.33v0m-1.18,0,0,0,0-.07a5.44,5.44,0,0,1-.22-.5c-.11-.41-.22-.83-.31-1.24s-.17-.89-.26-1.34-.18-.71-.29-1.06A5.19,5.19,0,0,0,7.05,3a3.88,3.88,0,0,0-.92-1.17,3.16,3.16,0,0,0-.8-.5,2.87,2.87,0,0,0-1-.23H4.2a2.75,2.75,0,0,0-1.06.21,3,3,0,0,0-1.08.78A3.64,3.64,0,0,0,1.2,3.55a2.06,2.06,0,0,0-.11.85,2.89,2.89,0,0,0,.58,1.41,4,4,0,0,0,.66.7,3.78,3.78,0,0,0,1,.65,7.4,7.4,0,0,0,.91.29c.41.09.84.15,1.26.22l1.1.14L7.41,8a4,4,0,0,1,.84.23l.36.15M4.21,0,3.8,0a3.7,3.7,0,0,0-2,.83A4.92,4.92,0,0,0,.23,3,3.31,3.31,0,0,0,.06,4.81,4.1,4.1,0,0,0,.88,6.57a5.55,5.55,0,0,0,.91.9A6.16,6.16,0,0,0,2.62,8,6.2,6.2,0,0,0,4,8.48a9.89,9.89,0,0,0,1.19.21h0l.64.08.9.12A8.78,8.78,0,0,1,8,9.18a9.06,9.06,0,0,1-1,.91l-.27.2-.29.21a.44.44,0,0,0-.19.34.41.41,0,0,0,.15.35c.19.19.39.37.59.55a.48.48,0,0,0,.32.13.48.48,0,0,0,.36-.17,1.81,1.81,0,0,0,.18-.21l.08-.1.21-.25c.18-.23.37-.45.55-.67L9,10l.17-.18.36.4.91,1.06.12.15.21.25a.54.54,0,0,0,.36.16.5.5,0,0,0,.34-.13l.07-.05.19-.17.34-.33a.43.43,0,0,0,0-.64,1.08,1.08,0,0,0-.24-.18,8.83,8.83,0,0,1-1.38-1.17L11.09,9a12.78,12.78,0,0,1,1.55-.25h.1l1-.13c.32-.05.64-.13.92-.2a5.37,5.37,0,0,0,1.29-.52,5.08,5.08,0,0,0,1.49-1.23A4.25,4.25,0,0,0,18.29,5a2.82,2.82,0,0,0,.08-1.19,3.93,3.93,0,0,0-.45-1.31,5.28,5.28,0,0,0-.65-1A4.26,4.26,0,0,0,15.37.21,4.06,4.06,0,0,0,14.05,0h-.26a4.06,4.06,0,0,0-1.56.41,4,4,0,0,0-1,.75,5.34,5.34,0,0,0-.64.78,5.18,5.18,0,0,0-.72,1.52c-.12.4-.22.81-.31,1.23,0,.27-.09.55-.13.83l-.05.34-.06.42-.06.47c-.05-.25-.09-.5-.14-.75S9,5.74,9,5.6,8.94,5.17,8.9,5a8,8,0,0,0-.43-1.54C8.31,3,8.15,2.68,8,2.36a5.09,5.09,0,0,0-.62-.87A4.83,4.83,0,0,0,5.88.37,4,4,0,0,0,4.21,0Zm6,8c.06-.16.11-.33.16-.49a11.64,11.64,0,0,0,.22-1.15c0-.16.05-.31.07-.47.07-.4.15-.87.26-1.33a5.88,5.88,0,0,1,.68-1.71,3.5,3.5,0,0,1,1-1.06A2.57,2.57,0,0,1,14,1.31h.2a2.88,2.88,0,0,1,1.18.35,3.29,3.29,0,0,1,1,.94,4.07,4.07,0,0,1,.44.76,2,2,0,0,1,.17,1.2,2.74,2.74,0,0,1-.29.81,3.56,3.56,0,0,1-.93,1.09,4.42,4.42,0,0,1-1.68.79,13.08,13.08,0,0,1-1.44.24l-1.22.17h-.07c-.24,0-.49.08-.73.14a4.26,4.26,0,0,0-.54.15ZM8.25,8a4.42,4.42,0,0,0-.81-.21l-.22,0-.55-.1-.53-.07-.57-.07-.18,0c-.35-.05-.72-.11-1.07-.18A5.91,5.91,0,0,1,3.45,7a3.41,3.41,0,0,1-1-.61,3.54,3.54,0,0,1-.63-.67,2.64,2.64,0,0,1-.54-1.31,2,2,0,0,1,.1-.77A3.56,3.56,0,0,1,2.2,2.23a2.93,2.93,0,0,1,1-.72,2.45,2.45,0,0,1,1-.2h.16a2.24,2.24,0,0,1,.89.22A2.91,2.91,0,0,1,6,2a3.92,3.92,0,0,1,.88,1.11,6.15,6.15,0,0,1,.45,1.05c.11.35.2.7.28,1s.09.44.13.67.08.44.13.66c.09.4.2.81.32,1.25L8.25,8Z"/><path class="cls-1" d="M10.3,8.13A.32.32,0,0,1,10,8a.35.35,0,0,1-.06-.3c0-.07,0-.14.07-.21a1.34,1.34,0,0,0,.07-.18c0-.14.06-.27.1-.41l0-.22a.45.45,0,0,1,.27-.35l.13,0a.4.4,0,0,1,.27.11.64.64,0,0,1,.14.2,1.62,1.62,0,0,0,.5.52,1,1,0,0,1,.2.16.29.29,0,0,1,.1.3.31.31,0,0,1-.22.22,1.36,1.36,0,0,1-.29.06,4.29,4.29,0,0,0-.91.23Z"/><path class="cls-1" d="M10.66,6.4a.32.32,0,0,1,.2.08,1.09,1.09,0,0,1,.13.17,1.55,1.55,0,0,0,.52.56.9.9,0,0,1,.19.15.19.19,0,0,1-.08.35,1.65,1.65,0,0,1-.32.07,3.86,3.86,0,0,0-.89.22L10.3,8a.25.25,0,0,1-.23-.32c0-.13.1-.25.13-.39s.11-.42.16-.63.07-.23.2-.27a.18.18,0,0,1,.1,0m0-.2-.17,0a.54.54,0,0,0-.33.42l-.05.22c0,.13-.06.27-.1.4L10,7.45a1.72,1.72,0,0,0-.07.21.45.45,0,0,0,.07.39.44.44,0,0,0,.35.18h.07l.11,0A3.41,3.41,0,0,1,11.33,8h.05a1.46,1.46,0,0,0,.3-.07A.39.39,0,0,0,12,7.61a.45.45,0,0,0-.13-.4L11.63,7a1.51,1.51,0,0,1-.47-.48A.81.81,0,0,0,11,6.33a.46.46,0,0,0-.33-.13Z"/><path class="cls-1" d="M8.17,8a1.13,1.13,0,0,1-.36-.08,5.83,5.83,0,0,0-.88-.19.73.73,0,0,1-.21-.06.3.3,0,0,1-.14-.2.26.26,0,0,1,.08-.25,1.9,1.9,0,0,1,.21-.19,1.6,1.6,0,0,0,.54-.57.56.56,0,0,1,.18-.22A.42.42,0,0,1,7.8,6.2a.39.39,0,0,1,.36.3.73.73,0,0,1,.05.2,3.57,3.57,0,0,0,.25.82l0,.11c0,.26-.12.39-.3.39Z"/><path class="cls-1" d="M7.8,6.3a.29.29,0,0,1,.27.23,1.21,1.21,0,0,1,0,.18,3.59,3.59,0,0,0,.24.85.65.65,0,0,1,0,.13c0,.13-.08.23-.21.23h0a.93.93,0,0,1-.33-.07,4.77,4.77,0,0,0-.91-.2.61.61,0,0,1-.18-.05.19.19,0,0,1,0-.3l.2-.17a1.76,1.76,0,0,0,.57-.61.46.46,0,0,1,.14-.17.27.27,0,0,1,.16,0m0-.2a.5.5,0,0,0-.26.08.67.67,0,0,0-.22.25,1.48,1.48,0,0,1-.5.54,1.41,1.41,0,0,0-.24.2.42.42,0,0,0-.1.34.35.35,0,0,0,.19.26.61.61,0,0,0,.25.08A3.91,3.91,0,0,1,7.78,8a1.23,1.23,0,0,0,.39.08h0A.42.42,0,0,0,8.6,7.7V7.64a.46.46,0,0,0,0-.16,3.73,3.73,0,0,1-.24-.8,1.6,1.6,0,0,0-.05-.21A.5.5,0,0,0,7.8,6.1Z"/></g></g></svg>