<svg xmlns="http://www.w3.org/2000/svg" viewBox="0 0 17.46 11.28"><defs><style>.cls-1{fill:#f7941d;}</style></defs><title>Asset 8</title><g id="Layer_2" data-name="Layer 2"><g id="Layer_1-2" data-name="Layer 1"><path class="cls-1" d="M17.31,3a4.58,4.58,0,0,0-.93-1.52A5.06,5.06,0,0,0,14.77.29,2.8,2.8,0,0,0,12.9.07a3.75,3.75,0,0,0-1.44.65A4,4,0,0,0,10.33,2a6.37,6.37,0,0,0-.56,1.28,7.09,7.09,0,0,0-.29,1.58c0,.38-.06.76-.12,1.14s-.2,1-.3,1.43A.92.92,0,0,1,8.72,8l0,0-.47.52-.74.74c-.05,0-.11.1-.16.16a4.24,4.24,0,0,1-.69.58c-.14.11-.28.21-.41.33a.07.07,0,0,0,0,.11c.08.09.14.19.22.27a3.15,3.15,0,0,0,.54.49s.07.05.1,0,.2-.22.29-.34.25-.36.4-.52.47-.48.7-.72l.63-.6c.11-.11.23-.2.35-.31a.34.34,0,0,0,.12-.12.28.28,0,0,1,.2-.15L10,8.43l1.35-.29A9.14,9.14,0,0,1,12.58,8c.28,0,.57,0,.86-.09a6.76,6.76,0,0,0,1.63-.53,4.53,4.53,0,0,0,1.25-.87l.07-.07a3.8,3.8,0,0,0,.93-1.57A2.87,2.87,0,0,0,17.31,3Zm-6.1,4.35-.16,0a3,3,0,0,0-.79.22.86.86,0,0,1-.21.07c-.21,0-.33-.08-.28-.29a2.42,2.42,0,0,1,.12-.35c.06-.21.11-.43.16-.65a.61.61,0,0,1,0-.11c.07-.19.22-.23.39-.06l.08.12a1.81,1.81,0,0,0,.63.6.47.47,0,0,1,.1.1A.19.19,0,0,1,11.21,7.37Z"/><path class="cls-1" d="M11.26,10.4c-.11-.1-.22-.2-.34-.29s-.36-.25-.52-.4S9.92,9.24,9.68,9l-.6-.62C9,8.27,8.88,8.15,8.77,8a.28.28,0,0,0-.12-.12.33.33,0,0,1-.15-.2c0-.06-.05-.13-.07-.2-.1-.44-.2-.89-.29-1.34A9.14,9.14,0,0,1,8,4.89,8.08,8.08,0,0,0,7.89,4,6.62,6.62,0,0,0,7.36,2.4a4.58,4.58,0,0,0-.87-1.26l-.07-.06A3.69,3.69,0,0,0,4.85.15,2.8,2.8,0,0,0,3,.16a4.58,4.58,0,0,0-1.52.93A5.13,5.13,0,0,0,.29,2.69,2.87,2.87,0,0,0,0,4.09a2.65,2.65,0,0,0,.07.48A3.75,3.75,0,0,0,.72,6,4,4,0,0,0,2,7.14a6.37,6.37,0,0,0,1.28.56A7.09,7.09,0,0,0,4.82,8c.38,0,.76.06,1.14.12s1,.2,1.43.3A.92.92,0,0,1,8,8.75l0,0,.52.47.74.74.16.16a4.24,4.24,0,0,1,.58.69c.11.14.21.28.33.41a.07.07,0,0,0,.11,0,2.88,2.88,0,0,0,.27-.22,3.15,3.15,0,0,0,.49-.54s0,0,0-.05S11.28,10.41,11.26,10.4ZM7.41,7.7c-.12,0-.23-.09-.35-.12l-.65-.16-.11,0c-.1,0-.15-.09-.16-.16s0-.14.1-.23l.12-.08A1.81,1.81,0,0,0,7,6.29a.47.47,0,0,1,.1-.1.19.19,0,0,1,.31.07.94.94,0,0,1,0,.16,3,3,0,0,0,.22.79,1.72,1.72,0,0,1,.07.21.33.33,0,0,1,0,.14C7.67,7.68,7.57,7.74,7.41,7.7Z"/></g></g></svg>